<?xml version="1.0" encoding="utf-8"?>
<!DOCTYPE svg PUBLIC "-//W3C//DTD SVG 1.0//EN" "http://www.w3.org/TR/2001/REC-SVG-20010904/DTD/svg10.dtd">
<svg version="1.0" xmlns="http://www.w3.org/2000/svg" width="600px" height="600px" viewBox="0 0 600 600" preserveAspectRatio="xMidYMid meet">
 <g fill="#000000">
  <path d="M58.59 300 l0 -240.82 36.62 0 36.62 0 0 14.36 0 14.36 -21.68 0 -21.68 0 0 212.40 0 212.40 21.68 0 21.68 0 0 14.06 0 14.06 -36.62 0 -36.62 0 0 -240.82z"/>
  <path d="M468.16 526.76 l0 -14.06 21.68 0 21.68 0 0 -212.40 0 -212.40 -21.68 0 -21.68 0 0 -14.36 0 -14.36 36.62 0 36.62 0 0 240.82 0 240.82 -36.62 0 -36.62 0 0 -14.06z"/>
  <path d="M166.70 461.31 c-11.37 -2.40 -18.87 -9.67 -21.80 -21.04 -0.94 -3.69 -1.05 -7.73 -1 -46.82 0 -39.26 0.12 -43.13 1.11 -46.88 2.93 -11.48 9.67 -18.34 20.74 -21.15 2.93 -0.70 5.74 -0.88 12.60 -0.70 7.97 0.23 9.26 0.41 12.66 1.82 7.97 3.28 12.89 8.67 15.64 17.05 1.46 4.39 1.58 5.68 1.82 17.23 l0.23 12.42 -11.19 0 -11.19 0 -0.06 -4.80 c-0.06 -8.44 -0.82 -14.77 -2.05 -17.17 -1.64 -3.16 -5.57 -5.33 -8.73 -4.75 -3.46 0.64 -6.45 3.93 -7.27 8.03 -0.47 2.34 -0.64 14.06 -0.53 40.72 0.18 41.43 0 39.26 3.98 42.66 3.52 2.93 7.56 2.75 10.72 -0.53 2.93 -3.05 3.40 -5.21 3.75 -17.70 l0.35 -11.31 11.02 0 11.07 0 0 12.77 c-0.06 15.06 -0.76 20.16 -3.81 26.25 -3.52 7.21 -10.31 12.19 -18.93 14.06 -4.98 1.05 -13.89 1 -19.16 -0.18z"/>
  <path d="M255.64 461.66 c-10.31 -1.70 -18.63 -8.50 -21.86 -17.81 -2.29 -6.56 -2.40 -10.72 -2.23 -53.61 0.23 -37.38 0.35 -41.66 1.29 -44.77 1.64 -5.51 3.22 -8.44 6.68 -12.19 5.86 -6.33 12.54 -8.67 24.55 -8.67 14.59 0 22.97 4.10 28.13 13.83 2.93 5.51 3.69 9.67 4.10 22.97 l0.35 11.84 -11.48 0 -11.54 0 0 -7.91 c0 -11.78 -1.29 -15.82 -5.92 -18.16 -3.63 -1.93 -8.55 0 -10.72 4.10 -1.23 2.29 -1.23 3.11 -1.41 41.60 l-0.12 39.26 1.29 2.64 c1.46 2.93 4.92 5.27 7.68 5.27 3.87 0 7.56 -3.52 8.55 -8.20 0.35 -1.64 0.64 -7.62 0.64 -13.18 l0 -10.25 11.48 0 11.54 0 -0.35 14.24 c-0.35 15.59 -0.88 18.98 -3.98 25.08 -4.75 9.49 -14.88 14.65 -28.36 14.53 -2.87 -0.06 -6.68 -0.29 -8.32 -0.59z"/>
  <path d="M336.33 404.30 l0 -56.25 -10.84 0 -10.84 0 0 -10.84 0 -10.84 33.69 0 33.69 0 -0.12 10.72 -0.18 10.66 -10.96 0.18 -11.02 0.12 0 56.25 0 56.25 -11.72 0 -11.72 0 0 -56.25z"/>
  <path d="M402.54 393.46 l0 -67.09 12.01 0 12.01 0 0 56.25 0 56.25 16.99 0 16.99 0 0 10.84 0 10.84 -29 0 -29 0 0 -67.09z"/>
  <path d="M175.78 294.73 l0 -6.45 5.86 0 5.86 0 0 -6.45 c0 -6.04 0.06 -6.45 1.17 -6.45 1.05 0 1.17 -0.41 1.17 -4.10 l0 -4.10 2.34 0 2.34 0 0 -3.22 c0 -3.05 0.06 -3.22 1.46 -3.22 l1.46 0 0 -45.70 0 -45.70 -1.46 0 c-1.41 0 -1.46 -0.18 -1.46 -3.22 l0 -3.22 -2.34 0 -2.29 0 0 -10.55 -0.06 -10.55 110.45 0 110.45 0 0 5.86 0 5.80 -6.56 0.23 -6.62 0.18 6.62 0.12 6.56 0.12 0 4.39 0 4.39 -2.34 0 -2.34 0 0 3.22 c0 3.05 -0.06 3.22 -1.46 3.22 l-1.46 0 0 45.70 0 45.70 1.46 0 c1.41 0 1.46 0.18 1.46 3.22 l0 3.22 2.34 0 2.34 0 0 4.10 c0 3.69 0.12 4.10 1.17 4.10 1.11 0 1.17 0.41 1.17 6.45 l0 6.45 5.86 0 5.86 0 0 6.45 0 6.45 -124.51 0 -124.51 0 0 -6.45z m73.83 -23.44 l0 -4.10 2.05 0 2.05 0 0 -3.22 c0 -3.16 0 -3.22 1.76 -3.22 l1.76 0 0 -45.70 0 -45.70 -1.46 0 c-1.41 0 -1.46 -0.18 -1.46 -3.22 l0 -3.22 -2.34 0 -2.34 0 0 -4.39 0 -4.39 -9.38 0 -9.38 0 0 4.39 0 4.39 -2.05 0 -2.05 0 0 3.22 c0 3.11 -0.06 3.22 -1.58 3.22 l-1.64 0 0.06 39.43 c0.06 21.62 0.12 42.19 0.18 45.70 l0.06 6.27 1.46 0 c1.41 0 1.46 0.18 1.46 3.22 l0 3.22 2.05 0 2.05 0 0 4.10 0 4.10 9.38 0 9.38 0 0 -4.10z m59.77 0 l0 -4.10 2.05 0 c1.99 0 2.05 -0.06 2.05 -2.29 0 -3.22 0.47 -4.16 2.11 -4.16 l1.41 0 0 -45.70 0 -45.70 -1.76 0 c-1.76 0 -1.76 -0.06 -1.76 -3.22 l0 -3.22 -2.05 0 -2.05 0 0 -4.39 0 -4.39 -9.38 0 -9.38 0 0 4.39 0 4.39 -2.34 0 -2.34 0 0 3.22 c0 3.05 -0.06 3.22 -1.46 3.22 l-1.46 0 0 45.70 0 45.70 1.46 0 c1.41 0 1.46 0.18 1.46 3.22 l0 3.22 2.34 0 2.34 0 0 4.10 0 4.10 9.38 0 9.38 0 0 -4.10z m60.35 0 l0 -4.10 2.05 0 2.05 0 0 -3.22 c0 -3.16 0 -3.22 1.76 -3.22 l1.76 0 0 -45.70 0 -45.70 -1.76 0 c-1.76 0 -1.76 -0.06 -1.76 -3.22 l0 -3.22 -2.05 0 -2.05 0 0 -4.39 0 -4.39 -9.96 0 -9.96 0 0 4.39 0 4.39 -2.05 0 -2.05 0 0 3.22 c0 3.05 -0.06 3.22 -1.46 3.22 l-1.46 0 0 45.70 0 45.70 1.46 0 c1.41 0 1.46 0.18 1.46 3.22 l0 3.22 2.05 0 2.05 0 0 4.10 0 4.10 9.96 0 9.96 0 0 -4.10z m-152.46 -117.60 c-3.11 -0.12 -8.38 -0.12 -11.72 0 -3.34 0.06 -0.76 0.18 5.68 0.18 6.45 0 9.14 -0.12 6.04 -0.18z m52.15 0 c-0.88 -0.12 -2.46 -0.12 -3.52 0 -1.05 0.12 -0.35 0.23 1.58 0.23 1.93 0 2.81 -0.12 1.93 -0.23z m17.29 0 c-1.41 -0.12 -3.63 -0.12 -4.98 0 -1.41 0.12 -0.29 0.23 2.46 0.23 2.75 0 3.87 -0.12 2.52 -0.23z m54.49 0 c-2.05 -0.12 -5.33 -0.12 -7.32 0 -2.05 0.12 -0.41 0.18 3.63 0.18 4.04 0 5.68 -0.06 3.69 -0.18z"/>
  <path d="M183.40 135.47 l0 -5.68 3.69 -1.29 c1.99 -0.70 22.38 -7.91 45.23 -16.05 22.91 -8.09 45.29 -16 49.80 -17.58 l8.20 -2.93 10.55 0.18 10.55 0.18 36.91 13.13 c20.33 7.15 43.24 15.23 50.98 17.93 7.73 2.70 14.94 5.21 16 5.57 l1.88 0.70 0 5.80 0 5.80 -116.89 0 -116.89 0 0 -5.74z"/>
 </g>
 <g fill="#ffffff">
  <path d="M0 300 l0 -300 300 0 300 0 0 300 0 300 -300 0 -300 0 0 -300z m130.08 226.76 l0 -12.30 -21.68 0 -21.68 0 0 -214.16 0 -214.16 21.68 0 21.68 0 0 -12.60 0 -12.60 -34.86 0 -34.86 0 0 239.06 0 239.06 34.86 0 34.86 0 0 -12.30z m409.57 -226.76 l0 -239.06 -34.86 0 -34.86 0 0 12.60 0 12.60 21.68 0 21.68 0 0 214.16 0 214.16 -21.68 0 -21.68 0 0 12.30 0 12.30 34.86 0 34.86 0 0 -239.06z m-355.55 159.73 c8.61 -1.88 15.41 -6.86 18.93 -14.06 2.93 -5.86 3.75 -11.31 3.81 -24.49 l0 -11.02 -9.32 0 -9.26 0 -0.35 11.31 c-0.18 6.68 -0.59 12.13 -1.05 13.48 -2.34 6.97 -11.25 9.49 -16.93 4.75 -3.98 -3.40 -3.81 -1.05 -3.98 -44.41 -0.18 -42.01 -0.06 -44.06 2.70 -47.29 4.45 -5.33 14.53 -4.39 17.40 1.64 1.17 2.40 1.93 9.14 1.99 17.05 l0.06 4.80 9.43 0 9.43 0 -0.23 -10.66 c-0.23 -9.61 -0.47 -11.25 -1.82 -15.47 -2.75 -8.38 -7.73 -13.77 -15.64 -16.99 -5.04 -2.11 -15.82 -2.64 -21.68 -1.17 -11.13 2.81 -17.87 9.67 -20.80 21.15 -1 3.75 -1.11 7.56 -1.11 45.12 -0.06 45.59 -0.12 45.12 3.93 52.62 5.80 11.02 20.16 16.64 34.51 13.65z m87.48 -0.06 c8.73 -1.82 15.47 -6.74 18.98 -13.71 2.99 -5.80 3.63 -9.61 3.98 -23.32 l0.35 -12.48 -9.79 0 -9.73 0 0 10.25 c0 5.57 -0.29 11.54 -0.64 13.18 -1.11 5.33 -4.80 8.26 -10.25 8.26 -4.39 0 -7.73 -1.88 -9.49 -5.33 l-1.29 -2.64 0.12 -41.02 c0.18 -40.31 0.18 -41.07 1.41 -43.36 1.70 -3.22 4.86 -4.98 9.20 -4.98 3.87 0 6.04 0.94 8.20 3.46 2.05 2.46 2.75 6.45 2.75 15.59 l0 7.91 9.79 0 9.73 0 -0.35 -10.08 c-0.47 -11.43 -1.35 -16.05 -4.10 -21.21 -4.92 -9.26 -13.65 -13.83 -26.37 -13.83 -10.14 0 -17.23 2.70 -22.79 8.67 -3.46 3.75 -5.04 6.68 -6.68 12.19 -0.94 3.11 -1.05 7.32 -1.29 43.01 -0.18 41.07 0 45.29 2.23 51.86 4.69 13.59 19.80 20.98 36.04 17.58z m86.43 -57.13 l0 -56.25 11.02 -0.12 10.96 -0.18 0.18 -8.91 0.18 -8.96 -31.99 0 -31.93 0 0 9.08 0 9.08 10.84 0 10.84 0 0 56.25 0 56.25 9.96 0 9.96 0 0 -56.25z m100.78 47.17 l0 -9.08 -16.99 0 -16.99 0 0 -56.25 0 -56.25 -10.25 0 -10.25 0 0 65.33 0 65.33 27.25 0 27.25 0 0 -9.08z m-35.74 -154.98 l0 -4.69 -122.75 0 -122.75 0 0 4.69 0 4.69 122.75 0 122.75 0 0 -4.69z m-11.72 -12.89 l0 -4.69 -111.04 0 -111.04 0 0 4.69 0 4.69 111.04 0 111.04 0 0 -4.69z m-182.23 -10.25 l0 -2.64 -18.75 0 -18.75 0 0 2.23 c0 1.23 0.18 2.46 0.41 2.64 0.18 0.23 8.61 0.41 18.75 0.41 l18.34 0 0 -2.64z m59.77 0 l0 -2.64 -18.75 0 -18.75 0 0 2.64 0 2.64 18.75 0 18.75 0 0 -2.64z m59.18 0 l0 -2.64 -18.46 0 -18.46 0 0 2.64 0 2.64 18.46 0 18.46 0 0 -2.64z m60.94 0 l0 -2.64 -18.75 0 -18.75 0 0 2.64 0 2.64 18.75 0 18.75 0 0 -2.64z m-196.52 -4.98 l12.54 0 0 -2.05 0 -2.05 -14.36 0 -14.36 0 0 2.40 c0 2.40 0 2.40 1.82 2.05 1 -0.18 7.50 -0.35 14.36 -0.35z m58.59 0 l13.13 0 0 -2.05 0 -2.05 -14.36 0 -14.36 0 0 1.93 c0 2.23 0.47 2.93 1.64 2.46 0.41 -0.18 6.74 -0.29 13.95 -0.29z m61.05 0 l11.84 0 0 -2.05 0 -2.05 -14.06 0 -14.06 0 -0.35 1.46 c-0.64 2.58 0.12 3.40 2.58 2.99 1.17 -0.18 7.50 -0.35 14.06 -0.35z m72.19 -2.05 l0 -2.05 -14.36 0 -14.36 0 0 1.93 c0 1.11 0.12 2.11 0.23 2.23 0.12 0.12 6.62 0.18 14.36 0.06 l14.12 -0.18 0 -1.99z m-182.23 -6.45 l0 -2.05 -11.43 0 -11.43 0 0 2.05 0 2.05 11.43 0 11.43 0 0 -2.05z m59.18 0 l0 -2.05 -11.13 0 -11.13 0 0 2.05 0 2.05 11.13 0 11.13 0 0 -2.05z m59.77 0 l0 -2.05 -11.13 0 -11.13 0 0 2.05 0 2.05 11.13 0 11.13 0 0 -2.05z m60.35 0 l0 -2.05 -11.13 0 -11.13 0 0 2.05 0 2.05 11.13 0 11.13 0 0 -2.05z m-179.65 -43.07 l0.06 -38.38 -11.31 -0.18 -11.25 -0.12 0 38.67 0 38.67 11.19 -0.12 11.25 -0.18 0.06 -38.38z m59.53 0 l0 -38.67 -11.13 0 -11.13 0 0 38.67 0 38.67 11.13 0 11.13 0 0 -38.67z m59.77 0 l0 -38.67 -11.13 0 -11.13 0 0 38.67 0 38.67 11.13 0 11.13 0 0 -38.67z m60.35 0 l0 -38.67 -11.13 0 -11.13 0 0 38.67 0 38.67 11.13 0 11.13 0 0 -38.67z m-179.88 -43.18 l0 -2.23 -11.13 0.18 -11.13 0.18 0 1.99 0 2.05 11.13 0 11.13 0 0 -2.17z m59.77 0.12 l0 -2.05 -11.13 0 -11.13 0 0 2.05 0 2.05 11.13 0 11.13 0 0 -2.05z m59.65 0 c-0.12 -1.17 -0.35 -2.05 -0.59 -2.05 -0.29 0 -5.21 0 -11.02 0 l-10.55 0 0 2.05 0 2.05 11.19 0 11.13 0 -0.18 -2.05z m60.47 0 l0 -2.05 -11.13 0 -11.13 0 0 2.05 0 2.05 11.13 0 11.13 0 0 -2.05z m-176.37 -6.74 l0 -2.34 -14.36 0 -14.36 0 0 2.34 0 2.34 14.36 0 14.36 0 0 -2.34z m59.18 0 l0 -2.34 -14.06 0 -14.06 0 0 2.34 0 2.34 14.06 0 14.06 0 0 -2.34z m59.77 0 l0 -2.34 -14 0 -14 0 -0.35 1.35 c-0.94 3.52 -1.70 3.34 14 3.34 l14.36 0 0 -2.34z m60.35 0 l0 -2.34 -14.18 0.12 -14.24 0.18 -0.18 2.23 -0.18 2.17 14.36 0 14.41 0 0 -2.34z m-175.20 -6.74 l0 -2.64 -18.75 0 -18.75 0 0 2.64 0 2.58 18.75 0.06 18.75 0 0 -2.64z m59.77 0 l0 -2.64 -18.75 0 -18.75 0 0 2.58 0 2.52 18.75 0.06 18.75 0.06 0 -2.58z m59.18 -0.12 l0 -2.52 -18.46 0 -18.46 0 0 2.70 0 2.64 18.46 -0.12 18.46 -0.18 0 -2.52z m60.94 0.12 l0 -2.64 -18.75 0 -18.75 0 0 2.64 0 2.64 18.75 0 18.75 0 0 -2.64z m-13.01 -6.50 l13.01 -0.35 0 -4.04 0 -4.04 -108.57 0 -108.63 0 -0.12 3.81 c-0.06 2.11 0 4.04 0.18 4.28 0.29 0.53 186.33 0.88 204.14 0.35z m19.45 -16.58 c0 -4.04 0 -4.04 -1.88 -4.75 -1.05 -0.35 -8.26 -2.87 -16 -5.57 -7.73 -2.70 -30.64 -10.72 -50.98 -17.93 l-36.91 -13.13 -8.79 -0.18 -8.79 -0.18 -8.20 2.87 c-4.51 1.64 -26.89 9.55 -49.80 17.64 -22.85 8.14 -43.24 15.35 -45.23 16.05 l-3.69 1.29 0 3.93 0 3.98 115.14 0 115.14 0 0 -4.04z"/>
 </g>
</svg>